OpenSim_Sub05_CSStiffKnee_RCS.mot
version=1
nRows=69
nColumns=11
inDegrees=no
endheader
time	Top_Thigh	Med_Thigh	Bot_Thigh	Top_Shank	2nd_Top_Shank	2nd_Bot_Shank	Bot_Shank	BNOx	BNOy	BNOZ
28.12000000	1219.42968380	1309.55586801	1168.79056495	1107.26897787	1298.75564893	1038.25617575	1084.87130966	0	0	0
28.13000000	1219.72953077	1308.50289616	1168.07378750	1105.99062627	1298.65068455	1037.45208325	1084.00930315	0	0	0
28.14000000	1219.88106406	1307.45138921	1167.44536216	1104.76208497	1298.57544704	1036.63469366	1083.19121782	0	0	0
28.15000000	1219.81864659	1306.41611303	1166.87796385	1103.61126732	1298.51657414	1035.83166559	1082.43124920	0	0	0
28.16000000	1219.47664128	1305.41183353	1166.34426750	1102.56608662	1298.46070361	1035.07065768	1081.74359280	0	0	0
28.17000000	1218.78941105	1304.45331658	1165.81694802	1101.65445621	1298.39447318	1034.37932854	1081.14244416	0	0	0
28.18000000	1217.69131882	1303.55532809	1165.26868033	1100.90428942	1298.30452061	1033.78533680	1080.64199879	0	0	0
28.19000000	1216.11672749	1302.73263393	1164.67213935	1100.34349958	1298.17748363	1033.31634108	1080.25645223	0	0	0
28.20000000	1214	1302	1164	1100	1298	1033	1080	0	0	0
28.21000000	1211.34114009	1301.36804556	1163.24042224	1099.88049823	1297.75060818	1032.85124789	1079.87825879	0	0	0
28.22000000	1208.40271483	1300.83080334	1162.44350620	1099.90687860	1297.37544953	1032.83412193	1079.86253001	0	0	0
28.23000000	1205.51293217	1300.37815946	1161.67483706	1099.97981967	1296.81256611	1032.89993501	1079.91553622	0	0	0
28.24000000	1203.00000000	1300.00000000	1161.00000000	1100	1296.00000000	1033	1080	0	0	0
28.25000000	1201.12218253	1299.68706958	1160.47375425	1099.88809788	1294.89689608	1033.09201234	1080.08438507	0	0	0
28.26000000	1199.85796903	1299.43354678	1160.10755523	1099.64479058	1293.54681048	1033.15919761	1080.16011978	0	0	0
28.27000000	1199.11590507	1299.23446868	1159.90203241	1099.29075514	1292.01440214	1033.19116394	1080.22437364	0	0	0
28.28000000	1198.80453621	1299.08487238	1159.85781527	1098.84666858	1290.36432997	1033.17751947	1080.27431616	0	0	0
28.29000000	1198.83240801	1298.97979494	1159.97553327	1098.33320793	1288.66125293	1033.10787233	1080.30711683	0	0	0
28.30000000	1199.10806602	1298.91427346	1160.25581589	1097.77105021	1286.96982995	1032.97183065	1080.31994518	0	0	0
28.31000000	1199.54005581	1298.88334503	1160.69929260	1097.18087245	1285.35471996	1032.75900255	1080.30997070	0	0	0
28.32000000	1200.03692294	1298.88204672	1161.30659287	1096.58335167	1283.88058189	1032.45899617	1080.27436290	0	0	0
28.33000000	1200.50721296	1298.90541562	1162.07834617	1095.99916490	1282.61207469	1032.06141964	1080.21029128	0	0	0
28.34000000	1200.85947144	1298.94848881	1163.01518198	1095.44898916	1281.61385728	1031.55588110	1080.11492536	0	0	0
28.35000000	1201.00228740	1299.00630905	1164.11772350	1094.95349309	1280.95055911	1030.93199749	1079.98544485	0	0	0
28.36000000	1200.90193300	1299.08144891	1165.37828638	1094.52219207	1280.64767601	1030.19109443	1079.83256965	0	0	0
28.37000000	1200.69607796	1299.19885474	1166.76450148	1094.13146129	1280.61442354	1029.36928825	1079.70725256	0	0	0
28.38000000	1200.55408078	1299.38760949	1168.23943582	1093.75154877	1280.73851886	1028.50912755	1079.66788481	0	0	0
28.39000000	1200.64529997	1299.67679608	1169.76615640	1093.35270255	1280.90767911	1027.65316092	1079.77285763	0	0	0
28.40000000	1201.13867817	1300.09535337	1171.30773311	1092.90515161	1281.00976626	1026.84383214	1080.08032724	0	0	0
28.41000000	1202.11500120	1300.64167945	1172.82784334	1092.37508172	1280.96333896	1026.10136494	1080.59862848	0	0	0
28.42000000	1203.45836525	1301.24603182	1174.29151991	1091.71965784	1280.75544436	1025.39640718	1081.22493806	0	0	0
28.43000000	1205.02625313	1301.82944812	1175.66397905	1090.89482431	1280.38239653	1024.69289878	1081.84139228	0	0	0
28.44000000	1206.67614766	1302.31296598	1176.91043696	1089.85652548	1279.84050955	1023.95477968	1082.33012744	0	0	0
28.45000000	1208.26553164	1302.61762306	1177.99610989	1088.56070571	1279.12609749	1023.14598978	1082.57327983	0	0	0
28.46000000	1209.65188789	1302.66445698	1178.88621403	1086.96330936	1278.23547442	1022.23046903	1082.45298575	0	0	0
28.47000000	1210.69269921	1302.37450540	1179.54596563	1085.02028077	1277.16495443	1021.17215733	1081.85138150	0	0	0
28.48000000	1211.24544842	1301.66880595	1179.94058089	1082.68756430	1275.91085158	1019.93499461	1080.65060337	0	0	0
28.49000000	1211.16761832	1300.46839627	1180.03527605	1079.92110430	1274.46947995	1018.48292079	1078.73278766	0	0	0
28.50000000	1210.33813824	1298.71424360	1179.80773282	1076.69910299	1272.84662703	1016.79348440	1076.00816395	0	0	0
28.51000000	1208.85734318	1296.55306056	1179.36432196	1073.22954400	1271.14588027	1014.98472395	1072.67698597	0	0	0
28.52000000	1206.95618556	1294.25293856	1178.88733385	1069.85596973	1269.52852383	1013.25755947	1069.11060615	0	0	0
28.53000000	1204.86730603	1292.08353777	1178.56004013	1066.92367463	1268.15658759	1011.81398225	1065.68258836	0	0	0
28.54000000	1202.82334525	1290.31451840	1178.56571243	1064.77795317	1267.19210145	1010.85598356	1062.76649643	0	0	0
28.55000000	1201.05694385	1289.21554062	1179.08762239	1063.76409979	1266.79709528	1010.58555469	1060.73589424	0	0	0
28.56000000	1199.80023189	1289.05547472	1180.30840495	1064.22642136	1267.13310439	1011.20402894	1059.96332935	0	0	0
28.57000000	1199.17709336	1289.93572928	1182.27571847	1066.29985090	1268.25681477	1012.77324836	1060.60589760	0	0	0
28.58000000	1199.06990104	1291.58408373	1184.73607071	1069.65218080	1269.99097972	1015.04383167	1062.33999355	0	0	0
28.59000000	1199.32834963	1293.67776300	1187.39522174	1073.88799625	1272.12669990	1017.72428698	1064.77696971	0	0	0
28.60000000	1199.80213382	1295.89399206	1189.95893168	1078.61188246	1274.45507596	1020.52312244	1067.52817860	0	0	0
28.61000000	1200.34094834	1297.90999586	1192.13296062	1083.42842464	1276.76720858	1023.14884618	1070.20497275	0	0	0
28.62000000	1200.79448788	1299.40299934	1193.62306865	1087.94220797	1278.85419843	1025.30996633	1072.41870466	0	0	0
28.63000000	1201.01244715	1300.05022746	1194.13501588	1091.75781766	1280.50714615	1026.71499103	1073.78072687	0	0	0
28.64000000	1200.85952034	1299.55571204	1193.39861503	1094.50208640	1281.53113833	1027.09451212	1073.93141084	0	0	0
28.65000000	1200.42483830	1298.02459498	1191.50357764	1096.13473534	1281.94053209	1026.50955935	1072.94533752	0	0	0
28.66000000	1199.97030365	1295.87079359	1188.81666605	1096.87174379	1281.91078146	1025.27553420	1071.23134320	0	0	0
28.67000000	1199.76226331	1293.51616791	1185.71176930	1096.93568293	1281.62148444	1023.71438145	1069.20686236	0	0	0
28.68000000	1200.06706421	1291.38257800	1182.56277645	1096.54912393	1281.25223902	1022.14804590	1067.28932948	0	0	0
28.69000000	1201.15095767	1289.89177980	1179.74349228	1095.93459535	1280.98259916	1020.89839450	1065.89607348	0	0	0
28.70000000	1203.15334508	1289.32736596	1177.51592404	1095.25807521	1280.93369242	1020.18396868	1065.30433577	0	0	0
28.71000000	1205.83671052	1289.56239569	1175.80988772	1094.51750926	1281.05304018	1019.91629224	1065.37510674	0	0	0
28.72000000	1208.89385184	1290.39402691	1174.49378228	1093.67977669	1281.25606671	1019.95012614	1065.89241839	0	0	0
28.73000000	1212.01756690	1291.61941753	1173.43600665	1092.71175668	1281.45819628	1020.14023134	1066.64030273	0	0	0
28.74000000	1214.90065355	1293.03572545	1172.50495979	1091.58032843	1281.57485316	1020.34136882	1067.40279175	0	0	0
28.75000000	1217.23590965	1294.44010859	1171.56904064	1090.25237111	1281.52146164	1020.40829952	1067.96391746	0	0	0
28.76000000	1218.71613307	1295.62972485	1170.49664816	1088.69476391	1281.21344598	1020.19578441	1068.10771184	0	0	0
28.77000000	1219.05396222	1296.41216464	1169.16453419	1086.87991836	1280.57358496	1019.56882620	1067.63223763	0	0	0
28.78000000	1218.25890921	1296.75111952	1167.57443467	1084.86302623	1279.63470245	1018.54567437	1066.54549858	0	0	0
28.79000000	1216.56902012	1296.73044799	1165.82429856	1082.76300372	1278.51433525	1017.26254807	1065.01711150	0	0	0
28.80000000	1214.22821969	1296.43709969	1164.01454973	1080.70040621	1277.33219926	1015.85870107	1063.22085043	0	0	0
